Coordinates
version=1
nRows=11
nColumns=40
inDegrees=yes

Units are S.I. units (second, meters, Newtons, ...)
If the header above contains a line with 'inDegrees', this indicates whether rotational values are in degrees (yes) or radians (no).

endheader
time	pelvis_tilt	pelvis_list	pelvis_rotation	pelvis_tx	pelvis_ty	pelvis_tz	hip_flexion_r	hip_adduction_r	hip_rotation_r	knee_angle_r	knee_angle_r_beta	ankle_angle_r	subtalar_angle_r	mtp_angle_r	hip_flexion_l	hip_adduction_l	hip_rotation_l	knee_angle_l	knee_angle_l_beta	ankle_angle_l	subtalar_angle_l	mtp_angle_l	lumbar_extension	lumbar_bending	lumbar_rotation	arm_flex_r	arm_add_r	arm_rot_r	elbow_flex_r	pro_sup_r	wrist_flex_r	wrist_dev_r	arm_flex_l	arm_add_l	arm_rot_l	elbow_flex_l	pro_sup_l	wrist_flex_l	wrist_dev_l
     18.42500000	     38.48340442	    -11.02159323	    179.08001172	      0.35410531	      0.69632661	     -0.59322513	    100.65219595	     -6.09098183	     10.29046132	     79.10272191	      1.38060294	     18.15595567	      0.00000000	      0.00000000	     94.13041933	     -5.77219210	    -11.65085747	     77.97616563	      1.36094083	     21.96673847	      0.00000000	      0.00000000	    -34.02466615	     -9.21144913	     -6.32327411	     56.09356060	    -11.88005580	     40.08582223	     10.06933963	      5.52433138	      0.00000000	      0.00000000	     62.17310463	    -16.18414942	     34.20378964	     15.52312999	     87.75381705	      0.00000000	      0.00000000
     18.43000000	     38.59928737	    -10.98850604	    179.02670579	      0.35418673	      0.69742017	     -0.59321801	    100.59728234	     -6.07536425	     10.18607694	     78.82588450	      1.37577122	     18.06698584	      0.00000000	      0.00000000	     94.08932898	     -5.84642241	    -11.68891921	     77.73105088	      1.35666277	     21.90396207	      0.00000000	      0.00000000	    -33.96834495	     -9.21462227	     -6.24332968	     56.11648282	    -11.88745266	     40.05105855	     10.07592272	      5.51385282	      0.00000000	      0.00000000	     62.18859863	    -16.17591168	     34.15344000	     15.56341664	     87.75960182	      0.00000000	      0.00000000
     18.43500000	     38.72891067	    -10.97221235	    179.02989451	      0.35431195	      0.69862652	     -0.59307710	    100.54052344	     -6.09726236	     10.13320842	     78.51642160	      1.37037007	     17.93078929	      0.00000000	      0.00000000	     94.04889056	     -5.81812349	    -11.69424736	     77.42353363	      1.35129558	     21.77354630	      0.00000000	      0.00000000	    -33.92239908	     -9.20313295	     -6.24797905	     56.14837081	    -11.86779500	     40.00808192	     10.08568146	      5.50539106	      0.00000000	      0.00000000	     62.19231832	    -16.18573489	     34.07345496	     15.61168952	     87.76067036	      0.00000000	      0.00000000
     18.44000000	     38.85276625	    -10.94188789	    179.02157853	      0.35445031	      0.69978049	     -0.59300480	    100.48575828	     -6.11081112	     10.05745397	     78.22151919	      1.36522306	     17.81164106	      0.00000000	      0.00000000	     94.00632031	     -5.83219742	    -11.71802329	     77.12701463	      1.34612035	     21.67826475	      0.00000000	      0.00000000	    -33.86355622	     -9.17865598	     -6.20508050	     56.19331040	    -11.86373903	     39.98390256	     10.06166352	      5.49328021	      0.00000000	      0.00000000	     62.21673782	    -16.16712047	     33.99360885	     15.61966573	     87.76584975	      0.00000000	      0.00000000
     18.44500000	     39.00035847	    -10.92101266	    179.05737286	      0.35459378	      0.70101585	     -0.59279415	    100.44347782	     -6.16660961	     10.00394635	     77.91312150	      1.35984050	     17.65365462	      0.00000000	      0.00000000	     93.96634131	     -5.74623277	    -11.69126194	     76.77785914	      1.34002643	     21.53462833	      0.00000000	      0.00000000	    -33.78747337	     -9.14240890	     -6.22506731	     56.23549027	    -11.84181145	     39.94950331	     10.03449467	      5.47788929	      0.00000000	      0.00000000	     62.22688283	    -16.14821420	     33.88251613	     15.61298952	     87.76612470	      0.00000000	      0.00000000
     18.45000000	     39.12295443	    -10.89110290	    179.03192199	      0.35466598	      0.70226018	     -0.59275439	    100.33804800	     -6.15299145	      9.92638073	     77.55607107	      1.35360880	     17.59894166	      0.00000000	      0.00000000	     93.90427584	     -5.81479183	    -11.77346025	     76.49133697	      1.33502568	     21.46681177	      0.00000000	      0.00000000	    -33.72899372	     -9.13488060	     -6.15310962	     56.26567569	    -11.85958555	     39.92658066	     10.01362061	      5.46608537	      0.00000000	      0.00000000	     62.25500790	    -16.11367146	     33.81332490	     15.62793237	     87.76908202	      0.00000000	      0.00000000
     18.45500000	     39.26302002	    -10.87608835	    179.03110354	      0.35482990	      0.70358043	     -0.59267394	    100.28278950	     -6.17215900	      9.85500987	     77.22185762	      1.34777567	     17.45625593	      0.00000000	      0.00000000	     93.84439317	     -5.81600426	    -11.82165334	     76.14262852	      1.32893957	     21.34240715	      0.00000000	      0.00000000	    -33.66771717	     -9.13154019	     -6.12740849	     56.29774473	    -11.86030516	     39.90665618	     10.00895102	      5.45682009	      0.00000000	      0.00000000	     62.30317325	    -16.06696162	     33.71525135	     15.60251472	     87.76618786	      0.00000000	      0.00000000
     18.46000000	     39.40763846	    -10.89164127	    179.07058779	      0.35492991	      0.70475108	     -0.59232713	    100.26504271	     -6.21557915	      9.88573748	     76.94621889	      1.34296487	     17.27461198	      0.00000000	      0.00000000	     93.80678649	     -5.51029538	    -11.62047777	     75.69494618	      1.32112604	     21.33443552	      0.00000000	      0.00000000	    -33.57087131	     -9.11600637	     -6.13980770	     56.31674909	    -11.87800275	     39.86253347	      9.99395337	      5.43259558	      0.00000000	      0.00000000	     62.33878173	    -15.97885653	     33.58854342	     15.49493704	     87.77071200	      0.00000000	      0.00000000
     18.46500000	     39.52888549	    -10.87641238	    179.03099216	      0.35497199	      0.70605713	     -0.59230046	    100.17207658	     -6.23928025	      9.75092420	     76.59897802	      1.33690437	     17.19360553	      0.00000000	      0.00000000	     93.72909765	     -5.59185602	    -11.71671102	     75.39213459	      1.31584098	     21.24173514	      0.00000000	      0.00000000	    -33.50765697	     -9.12819959	     -6.04405945	     56.32670552	    -11.92094878	     39.83365266	      9.98570563	      5.42012499	      0.00000000	      0.00000000	     62.37366201	    -15.91759972	     33.58412716	     15.50486701	     87.77794662	      0.00000000	      0.00000000
     18.47000000	     39.66151416	    -10.86767019	    179.05087843	      0.35510366	      0.70750435	     -0.59210152	    100.08343025	     -6.29181150	      9.69948542	     76.23733563	      1.33059252	     17.03301180	      0.00000000	      0.00000000	     93.64802085	     -5.55523540	    -11.75928868	     75.00964271	      1.30916524	     21.07276085	      0.00000000	      0.00000000	    -33.44487776	     -9.10398905	     -6.00494882	     56.34843662	    -11.96513466	     39.78614569	      9.99574536	      5.40768954	      0.00000000	      0.00000000	     62.45506124	    -15.82744942	     33.61506771	     15.41296807	     87.78187090	      0.00000000	      0.00000000
     18.47500000	     39.75034757	    -10.83552171	    178.99473641	      0.35504217	      0.70865060	     -0.59207759	     99.97766643	     -6.23519935	      9.63108480	     75.96316143	      1.32580728	     16.96222241	      0.00000000	      0.00000000	     93.57479147	     -5.68774148	    -11.89104610	     74.80514523	      1.30559608	     21.03440398	      0.00000000	      0.00000000	    -33.38155303	     -9.10298389	     -5.91263529	     56.34454078	    -11.98987228	     39.77340505	      9.98669706	      5.39973350	      0.00000000	      0.00000000	     62.45407605	    -15.77942246	     33.63808743	     15.38906958	     87.78506482	      0.00000000	      0.00000000
